<?xml version="1.0" encoding="utf-8"?>
<!-- Generator: Adobe Illustrator 18.0.0, SVG Export Plug-In . SVG Version: 6.00 Build 0)  -->
<!DOCTYPE svg PUBLIC "-//W3C//DTD SVG 1.1//EN" "http://www.w3.org/Graphics/SVG/1.1/DTD/svg11.dtd">
<svg xmlns="http://www.w3.org/2000/svg" xmlns:xlink="http://www.w3.org/1999/xlink" version="1.1" id="Слой_1" x="0px" y="0px" viewBox="0 76 768 773" enable-background="new 0 76 768 773" xml:space="preserve">
<path fill="#F35580" stroke="" stroke-width="2" stroke-linecap="round" stroke-linejoin="round" stroke-miterlimit="10" d="  M753.6,437h-65.3c-6.1-159.6-135.1-287.7-295.1-292.3V94.1c0-5.3-4.1-9.6-9.4-9.6h-0.2c-5.3,0-9.8,4.3-9.8,9.6v50.6  C214.5,150.1,86.3,277.9,80.2,437H14.8c-5.3,0-9.8,4.3-9.8,9.6v0.2c0,5.3,4.5,9.6,9.8,9.6H80c4,161,133,291,293.7,296.5v80  c0,5.3,4.5,9.6,9.8,9.6h0.2c5.3,0,9.4-4.3,9.4-9.6V753c161.4-4.7,291.2-135,295.2-296.5h65.2c5.3,0,9.4-4.3,9.4-9.6v-0.2  C763,441.3,758.9,437,753.6,437z M654.3,437h-54.1c-6-111-95.6-199.7-207-204.2v-54.1C534.4,183.3,648.2,296.2,654.3,437z   M373.7,395.8c-21,4.1-37.6,20.4-42.3,41.2h-49.3c5.5-47.7,43.6-85.5,91.6-90.4V395.8z M330.7,456.5c3.2,22.8,20.6,41,43,45.4V551  c-49.3-5-88.3-44.9-92-94.6H330.7z M393.2,502.1c23.1-3.9,41.2-22.4,44.5-45.7h48.9c-3.7,50.2-43.4,90.4-93.5,94.7L393.2,502.1  L393.2,502.1z M437,437c-4.8-21.3-22.1-37.9-43.8-41.5v-49c48.6,4.2,87.5,42.3,93.1,90.5H437z M373.7,314.1  c-65.8,5.1-118.5,57.3-124.2,122.9h-43.4c5.9-89.6,77.8-161.1,167.5-166.3V314.1z M249.3,456.5c3.8,67.6,57.2,122,124.5,127.1v43.3  c-91.1-5.3-163.9-79-167.8-170.5H249.3z M393.2,583.7c67.9-4.5,122.2-59.1,126-127.2h43.3c-3.9,92-77.4,166-169.3,170.6V583.7z   M518.9,437c-5.7-66.2-59.1-118.7-125.7-123v-43.3c90.4,4.5,163.1,76.3,169,166.4H518.9z M373.7,178.7v54.1  c-110.6,5.3-199.5,93.7-205.5,204.2h-54.1C120.2,296.7,233.2,184.1,373.7,178.7z M114,456.5h54.1c3.9,112.4,93.6,203,205.6,208.4  v54.1C231.8,713.5,117.9,598.7,114,456.5z M393.2,719v-54.1c112.7-4.6,203.2-95.5,207.1-208.4h54.1  C650.5,599.3,535.8,714.3,393.2,719z"/>
</svg>
